<svg width="100" height="100" viewBox="0 0 100 100" fill="none" xmlns="http://www.w3.org/2000/svg">
<path d="M7.72764 67.0677C7.72764 67.9199 8.32423 68.6017 9.1765 68.6017H9.26173C10.0288 68.6017 10.7106 68.0052 10.7106 67.1529C10.7106 66.812 11.0515 59.2268 6.53446 54.7949C5.25607 53.5165 4.74471 52.1529 5.17082 50.8745C5.59696 49.5961 6.61968 48.5733 7.98332 48.2324C8.75036 48.062 9.34696 47.2949 9.1765 46.5279C9.00605 45.7608 8.239 45.1643 7.47196 45.3347C5.08561 45.8461 3.12539 47.6358 2.35834 50.0222C1.9322 51.3858 1.67652 54.1983 4.48902 56.9256C7.98332 60.4199 7.72764 66.9824 7.72764 67.0677Z" fill="#FE5943"/>
<path d="M97.6423 49.0849L95.7673 44.227C94.915 42.0111 92.4434 40.9031 90.2275 41.7554L8.66493 72.6929C6.44902 73.5451 5.34107 76.0167 6.19334 78.2326L8.06834 83.0906C8.92061 85.3065 11.3922 86.4145 13.6081 85.5622L95.1707 54.6247C97.3866 53.7724 98.4945 51.3008 97.6423 49.0849ZM18.807 80.4486L15.9945 73.119L67.2161 53.6872L70.0286 61.0167L18.807 80.4486ZM12.5002 82.8349C11.8183 83.0906 11.0513 82.7497 10.7956 82.0679L8.92061 77.2099C8.66493 76.5281 9.00584 75.7611 9.68766 75.5054L13.182 74.1417L15.9945 81.4713L12.5002 82.8349ZM94.1479 51.8122L72.8411 59.9088L70.0286 52.5792L91.3355 44.4826C92.0173 44.227 92.7843 44.5679 93.04 45.2497L94.915 50.1076C95.1707 50.7895 94.8298 51.5565 94.1479 51.8122Z" fill="#052356"/>
<path d="M14.9728 45.5054C14.7171 48.1474 13.2683 50.4485 10.9671 51.8974C10.2853 52.3235 10.0296 53.261 10.4558 53.9429C10.8819 54.6247 11.7342 54.8804 12.5012 54.4542C15.5694 52.5792 17.6148 49.4258 17.9558 45.8463C18.4671 41.0735 16.3364 36.2156 11.9046 32.1247C9.94439 30.5054 8.75121 28.2042 8.66598 25.6474C8.58076 21.1304 12.2455 17.3804 12.3308 17.3804C12.9273 16.7838 12.9273 15.8463 12.3308 15.2497C11.7342 14.6531 10.7967 14.6531 10.2001 15.2497C10.0296 15.4201 5.5978 19.9372 5.68303 25.7326C5.76826 28.886 7.13189 31.7838 9.85917 34.3406C13.6092 37.7497 15.3989 41.7554 14.9728 45.5054Z" fill="#FE5943"/>
</svg>
