<svg width="24" height="30" viewBox="0 0 24 30" fill="none" xmlns="http://www.w3.org/2000/svg">
<path d="M21.9429 0H5.48571C4.35086 0 3.42857 0.896667 3.42857 2V3.33333H2.05714C0.922286 3.33333 0 4.23 0 5.33333V28C0 29.1033 0.922286 30 2.05714 30H18.5143C19.6491 30 20.5714 29.1033 20.5714 28V26.6667H21.9429C23.0777 26.6667 24 25.77 24 24.6667V2C24 0.896667 23.0777 0 21.9429 0ZM19.2 28C19.2 28.3667 18.8914 28.6667 18.5143 28.6667H2.05714C1.68 28.6667 1.37143 28.3667 1.37143 28V5.33333C1.37143 4.96667 1.68 4.66667 2.05714 4.66667H3.42857V24.6667C3.42857 25.77 4.35086 26.6667 5.48571 26.6667H19.2V28ZM22.6286 24.6667C22.6286 25.0333 22.32 25.3333 21.9429 25.3333H5.48571C5.10857 25.3333 4.8 25.0333 4.8 24.6667V2C4.8 1.63333 5.10857 1.33333 5.48571 1.33333H21.9429C22.32 1.33333 22.6286 1.63333 22.6286 2V24.6667ZM13.7143 22.6667C13.7143 23.0333 13.4057 23.3333 13.0286 23.3333H7.54286C7.16571 23.3333 6.85714 23.0333 6.85714 22.6667C6.85714 22.3 7.16571 22 7.54286 22H13.0286C13.4057 22 13.7143 22.3 13.7143 22.6667ZM13.7143 19.3333C13.7143 19.7 13.4057 20 13.0286 20H7.54286C7.16571 20 6.85714 19.7 6.85714 19.3333C6.85714 18.9667 7.16571 18.6667 7.54286 18.6667H13.0286C13.4057 18.6667 13.7143 18.9667 13.7143 19.3333ZM19.8857 18.6667H16.4571C16.08 18.6667 15.7714 18.9667 15.7714 19.3333V22.6667C15.7714 23.0333 16.08 23.3333 16.4571 23.3333H19.8857C20.2629 23.3333 20.5714 23.0333 20.5714 22.6667V19.3333C20.5714 18.9667 20.2629 18.6667 19.8857 18.6667ZM19.2 22H17.1429V20H19.2V22ZM20.5714 16C20.5714 16.3667 20.2629 16.6667 19.8857 16.6667H7.54286C7.16571 16.6667 6.85714 16.3667 6.85714 16C6.85714 15.6333 7.16571 15.3333 7.54286 15.3333H19.8857C20.2629 15.3333 20.5714 15.6333 20.5714 16ZM20.5714 12.6667C20.5714 13.0333 20.2629 13.3333 19.8857 13.3333H7.54286C7.16571 13.3333 6.85714 13.0333 6.85714 12.6667C6.85714 12.3 7.16571 12 7.54286 12H19.8857C20.2629 12 20.5714 12.3 20.5714 12.6667ZM19.8857 3.33333H7.54286C7.16571 3.33333 6.85714 3.63333 6.85714 4V9.33333C6.85714 9.7 7.16571 10 7.54286 10H19.8857C20.2629 10 20.5714 9.7 20.5714 9.33333V4C20.5714 3.63333 20.2629 3.33333 19.8857 3.33333ZM19.2 8.66667H8.22857V4.66667H19.2V8.66667Z" fill="#052356"/>
</svg>
