<svg width="30" height="30" viewBox="0 0 30 30" fill="none" xmlns="http://www.w3.org/2000/svg">
<path d="M15 30C6.72823 30 0 23.2718 0 15C0 6.72823 6.72823 0 15 0C23.2718 0 30 6.72823 30 15C30 23.2718 23.2718 30 15 30ZM15 0.967742C7.2629 0.967742 0.967742 7.2629 0.967742 15C0.967742 22.7371 7.2629 29.0323 15 29.0323C22.7371 29.0323 29.0323 22.7371 29.0323 15C29.0323 7.2629 22.7371 0.967742 15 0.967742Z" fill="#FE5943"/>
<path d="M21.7234 25.9138C21.6871 25.9138 21.6508 25.909 21.6145 25.9017C21.4839 25.8727 21.3726 25.788 21.3048 25.6743C20.0032 23.434 17.5863 22.0428 15 22.0428C12.4137 22.0428 9.99677 23.434 8.69516 25.6743C8.62742 25.7904 8.51613 25.8727 8.38548 25.9017C8.25725 25.9307 8.11935 25.9065 8.00806 25.834C4.46371 23.4775 2.34677 19.5364 2.34677 15.288C2.34677 8.31057 8.02258 2.63477 15.0024 2.63477C21.9823 2.63477 27.6581 8.31057 27.6581 15.288C27.6581 19.5364 25.5411 23.4799 21.9944 25.834C21.9121 25.8872 21.8177 25.9138 21.7234 25.9138ZM15 21.0751C17.7556 21.0751 20.3395 22.4686 21.8637 24.7428C24.8927 22.5436 26.6855 19.0452 26.6855 15.288C26.6855 8.84525 21.4427 3.60251 14.9976 3.60251C8.55242 3.60251 3.30967 8.84525 3.30967 15.288C3.30967 19.0452 5.10242 22.5436 8.13145 24.7428C9.66048 22.4686 12.2444 21.0751 15 21.0751Z" fill="#FE5943"/>
<path d="M15 6.14533C14.7339 6.14533 14.5161 5.92759 14.5161 5.66146V3.28807C14.5161 3.02194 14.7339 2.8042 15 2.8042C15.2661 2.8042 15.4839 3.02194 15.4839 3.28807V5.66146C15.4839 5.92759 15.2661 6.14533 15 6.14533Z" fill="#FE5943"/>
<path d="M8.19194 8.9639C8.06855 8.9639 7.94516 8.91793 7.85081 8.82116L6.17178 7.14213C5.98307 6.95342 5.98307 6.64616 6.17178 6.45745C6.36048 6.26874 6.66774 6.26874 6.85645 6.45745L8.53548 8.13648C8.72419 8.32519 8.72419 8.63245 8.53548 8.82116C8.43871 8.91551 8.31532 8.9639 8.19194 8.9639Z" fill="#FE5943"/>
<path d="M5.37096 15.7719H2.99757C2.73144 15.7719 2.5137 15.5542 2.5137 15.2881C2.5137 15.0219 2.73144 14.8042 2.99757 14.8042H5.37096C5.63709 14.8042 5.85483 15.0219 5.85483 15.2881C5.85483 15.5542 5.63951 15.7719 5.37096 15.7719Z" fill="#FE5943"/>
<path d="M27.0024 15.7719H24.629C24.3629 15.7719 24.1452 15.5542 24.1452 15.2881C24.1452 15.0219 24.3629 14.8042 24.629 14.8042H27.0024C27.2685 14.8042 27.4863 15.0219 27.4863 15.2881C27.4863 15.5542 27.2685 15.7719 27.0024 15.7719Z" fill="#FE5943"/>
<path d="M21.8081 8.9639C21.6847 8.9639 21.5613 8.91793 21.4669 8.82116C21.2782 8.63245 21.2782 8.32519 21.4669 8.13648L23.146 6.45745C23.3347 6.26874 23.6419 6.26874 23.8306 6.45745C24.0193 6.64616 24.0193 6.95342 23.8306 7.14213L22.1516 8.82116C22.0548 8.91551 21.9314 8.9639 21.8081 8.9639Z" fill="#FE5943"/>
<path d="M14.5814 17.7049C14.5573 17.7049 14.5306 17.7049 14.5064 17.7049C13.2484 17.6661 12.2177 16.6065 12.2081 15.3436C12.2008 14.4532 12.6871 13.6403 13.4734 13.2242C13.4758 13.2242 13.4758 13.2218 13.4782 13.2218L19.5798 10.0766C19.7758 9.96775 20.0226 10.0065 20.175 10.1734C20.3274 10.3403 20.3419 10.5895 20.2137 10.7758L18.675 12.9944C17.9177 14.0879 17.2863 15.2831 16.679 16.4395C16.2653 17.2234 15.4645 17.7049 14.5814 17.7049ZM13.9234 14.0782C13.4589 14.325 13.1734 14.8065 13.1758 15.3363C13.1806 16.0863 13.7903 16.7129 14.5355 16.7371C15.0726 16.7516 15.5685 16.4661 15.8226 15.9847C16.4443 14.804 17.0879 13.5823 17.8814 12.4403L18.3097 11.821L13.9234 14.0782Z" fill="#FE5943"/>
</svg>
