<svg width="100" height="100" viewBox="0 0 100 100" fill="none" xmlns="http://www.w3.org/2000/svg">
<g clip-path="url(#clip0)">
<path d="M48.2333 1.60254C48.0809 1.43978 47.8965 1.31004 47.6917 1.22135C47.4872 1.13266 47.2665 1.08691 47.0435 1.08691H11.1739C10.9508 1.08691 10.7302 1.13268 10.5255 1.22139C10.3208 1.3101 10.1366 1.43985 9.98407 1.60263C9.83156 1.76541 9.71409 1.95775 9.6389 2.16775C9.56371 2.37776 9.53241 2.60096 9.54693 2.82352L14.4348 77.7702V90.7608C14.4372 92.9221 15.2969 94.9943 16.8252 96.5226C18.3535 98.0508 20.4256 98.9106 22.587 98.913H82.913C85.0743 98.9106 87.1465 98.0508 88.6748 96.5226C90.203 94.9943 91.0628 92.9221 91.0652 90.7608V67.9347C91.0635 66.3491 90.6 64.7984 89.7313 63.4719C88.8628 62.1456 87.6265 61.1008 86.1739 60.4654V54.8913C86.1739 49.4139 84.0124 44.5887 79.9228 40.9371C78.0869 39.2839 75.973 37.9684 73.6789 37.0515C73.293 36.8982 72.8622 36.9037 72.4804 37.0667C72.0987 37.23 71.7967 37.5373 71.6409 37.9221C71.5604 38.0739 70.7983 39.4245 68.4506 40.7723C66.0846 42.1306 61.6169 43.75 53.7711 43.75C50.7704 43.75 48.1606 44.055 45.9417 44.665L48.6704 2.82394C48.685 2.60126 48.6537 2.37798 48.5785 2.16789C48.5035 1.9578 48.3859 1.76537 48.2333 1.60254ZM45.3033 4.34778L45.0906 7.60865H13.1268L12.9142 4.34778H45.3033ZM35.6304 89.1304V69.5652H87.8043V89.1304H35.6304ZM25.8478 89.1304V87.5C25.8483 87.0678 26.0202 86.6532 26.3259 86.3476C26.6316 86.0419 27.046 85.87 27.4783 85.8695H30.7391C31.1713 85.87 31.5859 86.0419 31.8915 86.3476C32.1972 86.6532 32.3691 87.0678 32.3696 87.5V89.1304H25.8478ZM32.3696 82.8891C31.8461 82.7032 31.2946 82.6084 30.7391 82.6087H27.4783C26.1815 82.6102 24.9382 83.1258 24.0212 84.0428C23.1042 84.96 22.5884 86.2032 22.587 87.5V89.1304H17.6956V79.3478H32.3696V82.8891ZM17.9761 92.3913H32.5337C32.7754 93.5741 33.2778 94.688 34.0046 95.6521H22.587C21.5758 95.6508 20.5899 95.3367 19.7644 94.753C18.9389 94.1691 18.3142 93.3441 17.9761 92.3913ZM82.913 95.6521H40.5217C39.5106 95.6508 38.5248 95.3367 37.6991 94.753C36.8737 94.1691 36.2489 93.3441 35.9109 92.3913H87.5239C87.1859 93.3441 86.5611 94.1691 85.7356 94.753C84.91 95.3367 83.9241 95.6508 82.913 95.6521ZM87.5239 66.3043H35.9109C36.2489 65.3515 36.8737 64.5265 37.6991 63.9426C38.5248 63.3589 39.5106 63.0447 40.5217 63.0434H82.913C83.9241 63.0447 84.91 63.3589 85.7356 63.9426C86.5611 64.5265 87.1859 65.3515 87.5239 66.3043ZM40.5217 59.7826V56.5217H82.913V59.7826H40.5217ZM70.4535 43.3763C71.6865 42.6506 72.7889 41.7228 73.7143 40.6317C75.2074 41.3828 76.5937 42.3295 77.8367 43.4471C80.7946 46.123 82.4711 49.4184 82.8361 53.261H40.6111C40.8002 52.2608 41.2546 51.33 41.9267 50.5658C43.9443 48.2402 48.0409 47.011 53.7711 47.011C60.8817 47.0108 66.4937 45.788 70.4535 43.3763ZM39.3937 48.5093C37.9287 50.2213 37.1713 52.4273 37.2754 54.678C37.2661 54.7487 37.2611 54.82 37.2609 54.8913V60.4654C35.8083 61.1008 34.5719 62.1456 33.7035 63.4719C32.8348 64.7984 32.3713 66.3491 32.3696 67.9347V76.0869H17.5937L13.3393 10.8695H44.878L42.5883 45.9776C41.3739 46.6128 40.2893 47.4719 39.3937 48.5093Z" fill="#052356"/>
<path d="M70.4298 74.3905C68.0761 73.382 64.9817 72.8262 61.7174 72.8262C58.4531 72.8262 55.3587 73.382 53.005 74.3905C49.2365 76.0055 48.6739 78.1897 48.6739 79.3479C48.6739 80.5062 49.2365 82.6903 53.005 84.3053C55.3587 85.3138 58.4531 85.8697 61.7174 85.8697C64.9817 85.8697 68.0761 85.3138 70.4298 84.3053C74.1983 82.6903 74.7609 80.5062 74.7609 79.3479C74.7609 78.1897 74.1983 76.0055 70.4298 74.3905ZM61.7174 82.6088C55.6489 82.6088 51.9348 80.4975 51.9348 79.3479C51.9348 78.1983 55.6489 76.087 61.7174 76.087C67.7859 76.087 71.5 78.1983 71.5 79.3479C71.5 80.4975 67.7859 82.6088 61.7174 82.6088Z" fill="#FE5943"/>
<path d="M38.8913 14.1304H19.3261C18.8937 14.1304 18.479 14.3022 18.1732 14.6079C17.8674 14.9137 17.6956 15.3284 17.6956 15.7608V25.5434C17.6956 25.9758 17.8674 26.3906 18.1732 26.6962C18.479 27.0021 18.8937 27.1738 19.3261 27.1738H38.8913C39.3237 27.1738 39.7385 27.0021 40.0441 26.6962C40.35 26.3906 40.5217 25.9758 40.5217 25.5434V15.7608C40.5217 15.3284 40.35 14.9137 40.0441 14.6079C39.7385 14.3022 39.3237 14.1304 38.8913 14.1304ZM37.2609 23.913H20.9565V17.3912H37.2609V23.913Z" fill="#FE5943"/>
<path d="M35.6304 30.4348H22.587C22.1545 30.4348 21.7398 30.6066 21.4341 30.9124C21.1283 31.2181 20.9565 31.6329 20.9565 32.0653C20.9565 32.4976 21.1283 32.9124 21.4341 33.2181C21.7398 33.5239 22.1545 33.6957 22.587 33.6957H35.6304C36.0628 33.6957 36.4776 33.5239 36.7833 33.2181C37.0891 32.9124 37.2609 32.4976 37.2609 32.0653C37.2609 31.6329 37.0891 31.2181 36.7833 30.9124C36.4776 30.6066 36.0628 30.4348 35.6304 30.4348Z" fill="#FE5943"/>
</g>
<defs>
<clipPath id="clip0">
<rect width="82.6087" height="100" fill="white" transform="translate(9)"/>
</clipPath>
</defs>
</svg>
