<svg width="100" height="100" viewBox="0 0 100 100" fill="none" xmlns="http://www.w3.org/2000/svg">
<path d="M97.5956 44.9894C95.1691 37.9994 90.4756 29.9035 84.38 22.1923C78.2844 14.4816 71.49 8.04647 65.2491 4.07225C58.5756 -0.176783 53.1575 -1.13811 49.9913 1.36443L44.425 5.76481C41.2591 8.26775 40.9444 13.7617 43.5384 21.2355C45.8781 27.9742 50.3244 35.7403 56.1025 43.1987C54.5069 43.2337 52.93 43.3038 51.3797 43.4084C43.0266 33.0872 34.095 24.9592 32.3578 23.407C31.5975 21.1035 30.5349 18.7742 29.188 16.4762C28.7788 15.7783 27.881 15.5441 27.1833 15.9531C26.4853 16.3623 26.2511 17.2598 26.6603 17.9578C27.8107 19.9203 28.7366 21.9004 29.4197 23.8552L27.6253 25.6857L18.3528 16.5959C17.7751 16.0295 16.8474 16.0387 16.2812 16.6166C15.715 17.1943 15.7241 18.1218 16.3017 18.6882L25.5743 27.7781L22.4052 31.0109L13.1325 21.9211C12.5548 21.3547 11.6271 21.3638 11.0608 21.9418C10.4947 22.5195 10.5038 23.447 11.0814 24.0134L20.354 33.1034L18.5597 34.9337C12.7997 33.0512 7.96475 29.4851 4.86828 26.7621C4.0874 26.0754 3.63625 25.1262 3.59797 24.0888C3.55969 23.0541 3.93781 22.0771 4.66319 21.3373L15.5497 10.2312C16.2747 9.49137 17.2402 9.09312 18.2794 9.11169C19.3173 9.12947 20.2753 9.5615 20.9777 10.3287C21.6255 11.0365 22.2593 11.7705 22.8605 12.5099C23.3708 13.1379 24.2937 13.2332 24.9212 12.7224C25.5489 12.2121 25.6442 11.2894 25.1337 10.6617C24.4966 9.87772 23.8251 9.09997 23.1388 8.35016C21.888 6.98356 20.18 6.21366 18.3294 6.182C16.4823 6.15231 14.7513 6.85994 13.4573 8.18006L2.57062 19.2861C1.27648 20.6062 0.60148 22.3504 0.670036 24.1973C0.738589 26.0467 1.5425 27.739 2.93371 28.9623C6.33137 31.9503 11.7085 35.8925 18.173 37.8831C19.2294 39.0197 23.2458 43.27 28.8652 48.3537C23.6253 50.7934 20.7861 53.8806 20.7861 57.2316C20.7861 58.1278 20.99 59.005 21.3874 59.8562C21.3939 59.8737 21.3987 59.8912 21.4058 59.9087L25.1337 69.0366C26.5003 72.3828 29.256 74.9316 32.6937 76.0284C37.2394 77.4791 45.3978 79.2084 58.4509 79.2084C67.8053 79.2084 74.6631 78.3284 79.5384 77.2647L91.4522 88.9434C93.3972 90.8503 93.425 93.6456 91.5184 95.5909C90.5697 96.5584 89.4172 97.0694 88.1834 97.0694C88.1766 97.0694 88.1697 97.0694 88.1625 97.0694C86.9634 97.0638 85.7947 96.5622 84.8713 95.6569L69.6659 80.7516C69.0881 80.185 68.1603 80.1947 67.5944 80.7722C67.0281 81.35 67.0372 82.2775 67.615 82.8441L82.8203 97.7494C84.2913 99.1913 86.1834 99.9903 88.1491 99.9994C88.1603 99.9994 88.1716 99.9994 88.1828 99.9994C90.1931 99.9994 92.12 99.1628 93.6109 97.6419C96.6562 94.5353 96.6103 89.8966 93.5037 86.8513L82.8741 76.4309C83.7166 76.1906 84.475 75.9497 85.15 75.7156C88.0322 74.7153 90.345 72.5263 91.4947 69.7097L94.5866 62.1384L96.7103 60.4594C96.7116 60.4584 96.7125 60.4575 96.7134 60.4569C99.8753 57.9534 100.189 52.4606 97.5956 44.9894ZM21.0073 36.6225L31.1562 26.2695C33.7506 28.6348 40.8537 35.3169 47.8384 43.7122C40.3991 44.6372 32.0397 47.0603 31.875 47.12C26.6829 42.4944 22.7284 38.4369 21.0073 36.6225ZM23.7152 57.2322C23.7152 54.6175 27.3111 51.8053 33.3347 49.71C39.7238 47.4869 49.3734 46.3022 58.5156 46.2012C59.8409 47.7903 61.1922 49.3163 62.5578 50.7678C61.195 50.71 59.8231 50.6787 58.4509 50.6787C50.8772 50.6787 43.4903 51.5612 37.6516 53.1631C36.4534 53.4919 35.3216 53.85 34.2875 54.2281C33.01 54.695 32.185 55.8744 32.185 57.2325C32.185 58.5909 33.0103 59.77 34.2875 60.2369C35.3213 60.6147 36.4531 60.9731 37.6516 61.3022C38.5659 61.5528 40.735 62.04 40.8384 62.04C41.5125 62.04 42.1191 61.5722 42.2684 60.8866C42.4406 60.0959 41.9397 59.3153 41.1491 59.1431C40.2072 58.9378 39.2913 58.7137 38.4269 58.4766C37.3056 58.1691 36.2516 57.8356 35.2931 57.485C35.2444 57.4675 35.1147 57.42 35.1147 57.2328C35.1147 57.0456 35.2444 56.9981 35.2931 56.9803C36.2519 56.6303 37.3059 56.2966 38.4269 55.9891C44.02 54.4544 51.1316 53.6091 58.4509 53.6091C60.865 53.6091 63.2769 53.705 65.6325 53.8878C67.9137 56.0928 70.2087 58.07 72.4634 59.7691C68.1306 60.4828 63.3537 60.8566 58.4509 60.8566C54.8162 60.8566 51.235 60.6503 47.8059 60.2431C47.0009 60.1469 46.2737 60.7219 46.1784 61.5253C46.0831 62.3288 46.6572 63.0575 47.4606 63.1528C51.0034 63.5734 54.7013 63.7866 58.4506 63.7866C64.6225 63.7866 70.615 63.21 75.8347 62.12C75.8516 62.1306 75.8687 62.1422 75.8856 62.1528C78.0775 63.5488 80.1325 64.5866 82.0181 65.2669C75.6 67.2544 67.2937 68.3628 58.4509 68.3628C37.9806 68.3622 23.7152 62.4966 23.7152 57.2322ZM88.7812 68.6025C87.9491 70.64 86.275 72.2237 84.1881 72.9481C79.8091 74.4675 71.7891 76.2788 58.45 76.2788C45.7738 76.2788 37.9306 74.625 33.5834 73.2378C30.9743 72.405 28.8827 70.4703 27.845 67.9294L26.6259 64.9444C28.2327 65.8847 30.1527 66.75 32.3712 67.5222C39.3594 69.9534 48.6213 71.2925 58.4506 71.2925C69.6719 71.2925 80.8412 69.2222 87.9578 66.1509C88.7084 66.0528 89.3991 65.8513 90.0275 65.5497L88.7812 68.6025ZM89.3259 62.5619C87.2756 64.1831 82.8391 63.1063 77.4594 59.6809C71.4878 55.8781 64.9509 49.6753 59.0528 42.215C46.3581 26.1566 42.1125 11.3281 46.2422 8.06344L47.3941 7.15272C47.2266 9.78806 47.7934 13.0582 49.1047 16.8351C51.5313 23.8252 56.2244 31.9209 62.3203 39.6319C68.4159 47.3425 75.2103 53.7778 81.4512 57.7519C84.825 59.9003 87.8759 61.205 90.4794 61.65L89.3259 62.5619ZM94.8922 58.1616C92.8419 59.7831 88.4053 58.7059 83.0256 55.2803C77.0537 51.4778 70.5169 45.275 64.6191 37.8147C58.7213 30.3545 54.1947 22.5625 51.8728 15.8742C49.7813 9.84938 49.7572 5.28453 51.8084 3.66306C52.4369 3.166 53.2897 2.92243 54.3253 2.92243C56.6678 2.92243 59.9447 4.16872 63.675 6.54391C69.6466 10.3468 76.1834 16.5496 82.0813 24.0097C94.7763 40.0681 99.0219 54.8966 94.8922 58.1616Z" fill="black"/>
</svg>
