<svg width="100" height="100" viewBox="0 0 100 100" fill="none" xmlns="http://www.w3.org/2000/svg">
<path d="M93.0732 4.64771H81.6719C80.8622 4.64771 80.2069 5.30308 80.2069 6.11258C80.2069 6.92127 80.8622 7.57742 81.6719 7.57742H93.0732C93.3425 7.57742 93.5616 7.79636 93.5616 8.0657V65.4602C93.5616 66.2689 94.2175 66.9249 95.0263 66.9249C95.836 66.9249 96.4913 66.2689 96.4913 65.4602V8.0657C96.4913 6.18045 94.9585 4.64771 93.0732 4.64771Z" fill="black"/>
<path d="M95.0263 70.375C94.2178 70.375 93.5616 71.0303 93.5616 71.8397V91.5991C93.5616 94.6159 91.1078 97.0703 88.0913 97.0703C85.0747 97.0703 82.6209 94.6159 82.6209 91.5991V59.0163C82.6209 54.3844 78.8522 50.6163 74.2203 50.6163C69.5884 50.6163 65.8203 54.3844 65.8203 59.0163V68.9247C65.8203 71.9413 63.3659 74.395 60.35 74.395C57.3334 74.395 54.8791 71.9413 54.8791 68.9247V61.6125L62.3353 54.1556C63.3528 53.1384 63.6956 51.7019 63.3734 50.3981L81.3438 32.4278C82.8887 30.8829 82.8887 28.3682 81.3438 26.8232L62.0978 7.57809H75.2922C76.1016 7.57809 76.7572 6.92197 76.7572 6.11325C76.7572 5.30378 76.1016 4.64841 75.2922 4.64841H59.1681L55.6794 1.15871C54.1334 -0.386238 51.6197 -0.386238 50.0747 1.15871L32.1059 19.1267C31.7962 19.0504 31.4766 19.0062 31.1485 19.0062C30.0903 19.0062 29.0946 19.4182 28.3462 20.1666L20.5741 27.9394C19.0292 29.4844 19.0292 31.9984 20.5741 33.5431L30.8814 43.8513C26.3557 48.2719 21.0448 52.2909 15.0794 55.8028C13.3445 56.8244 11.6904 58.1169 10.1623 59.6441C7.40653 62.4006 5.39694 65.6059 4.50431 68.6697C3.52394 72.0375 3.98247 74.8916 5.79672 76.7059C7.00675 77.9159 8.66769 78.5078 10.5857 78.5078C13.3933 78.5072 16.7502 77.2375 20.0408 74.7816C20.6886 74.2972 20.8221 73.3794 20.3384 72.7316C19.8539 72.0831 18.9361 71.9497 18.2883 72.4341C14.1006 75.5591 9.719 76.4847 7.86812 74.6344C6.8595 73.625 6.65884 71.7506 7.31728 69.4891C8.07412 66.8906 9.82047 64.1303 12.2344 61.7163C13.5871 60.3638 15.0443 59.2231 16.5656 58.3281C22.7454 54.6897 28.2531 50.5178 32.9528 45.9234L36.5791 49.5491C31.9837 54.2494 27.8129 59.7572 24.1744 65.9369C23.7197 66.7091 23.1849 67.4866 22.5837 68.2472C22.0825 68.8819 22.1908 69.8034 22.8256 70.3047C23.0941 70.5169 23.4146 70.6197 23.7327 70.6197C24.1653 70.6197 24.5941 70.4291 24.8832 70.0628C25.5668 69.1978 26.1779 68.3097 26.699 67.4231C30.2116 61.4569 34.2306 56.1462 38.6512 51.6203L48.9584 61.9278C49.7069 62.6769 50.7019 63.0888 51.7609 63.0888C51.8241 63.0888 51.8866 63.0828 51.9494 63.0797V68.9247C51.9494 73.5563 55.7181 77.3247 60.35 77.3247C64.9819 77.3247 68.75 73.5563 68.75 68.9247V59.0163C68.75 56.0003 71.2044 53.5459 74.2209 53.5459C77.2369 53.5459 79.6913 55.9997 79.6913 59.0163V91.5991C79.6913 96.2319 83.4594 100 88.0913 100C92.7238 100 96.4919 96.2319 96.4919 91.5991V71.8397C96.4913 71.0303 95.8359 70.375 95.0263 70.375ZM52.1462 3.2301C52.5491 2.82727 53.2044 2.82727 53.6072 3.2301L79.2716 28.8954C79.6744 29.2975 79.6744 29.9536 79.2716 30.3557L61.7056 47.9216L54.8537 41.0697L57.8216 38.1019C58.3938 37.5288 58.3938 36.6019 57.8216 36.0297C57.2494 35.4581 56.3216 35.4581 55.7503 36.0297L52.7816 38.9975L42.4072 28.623L45.3756 25.6552C45.9481 25.0837 45.9481 24.156 45.3756 23.5838C44.8034 23.0124 43.8759 23.0116 43.3044 23.5838L40.3359 26.5517L38.7572 24.9731L50.4394 13.291C51.0116 12.718 51.0116 11.7911 50.4394 11.2188C49.8672 10.6466 48.9394 10.6466 48.3681 11.2188L36.685 22.901L34.5803 20.796L52.1462 3.2301ZM51.0306 59.8562L22.6455 31.4719C22.2427 31.069 22.2427 30.4137 22.6455 30.0108L30.4183 22.2387C30.6137 22.0434 30.8731 21.9359 31.1485 21.9359C31.4247 21.9359 31.6841 22.0434 31.8794 22.2387L60.2638 50.6231C60.6666 51.0259 60.6666 51.6813 60.2638 52.0841L52.4919 59.8562C52.2966 60.0516 52.0369 60.1591 51.7609 60.1591C51.4847 60.1591 51.2259 60.0516 51.0306 59.8562Z" fill="black"/>
<path d="M32.8625 34.145C32.2903 33.5728 31.3625 33.5728 30.7902 34.145C30.218 34.7171 30.218 35.644 30.7902 36.2162L46.2872 51.7131C46.5731 51.9984 46.9478 52.1418 47.3231 52.1418C47.6978 52.1418 48.0725 51.9984 48.3584 51.7131C48.9306 51.1403 48.9306 50.2134 48.3584 49.6409L32.8625 34.145Z" fill="black"/>
<path d="M86.7194 35.6018H86.7041C85.8948 35.6018 85.2469 36.2571 85.2469 37.0665C85.2469 37.8762 85.9101 38.5315 86.7194 38.5315C87.5288 38.5315 88.1844 37.8762 88.1844 37.0665C88.1844 36.2571 87.5288 35.6018 86.7194 35.6018Z" fill="black"/>
<path d="M87.925 39.6057C87.1156 39.6163 86.4762 40.2801 86.4859 41.0888C86.4959 41.8916 87.1575 42.5354 87.9578 42.5354H87.9768C88.7856 42.5248 89.4334 41.861 89.4234 41.0523C89.4134 40.2498 88.7596 39.6057 87.9584 39.6057C87.9524 39.6057 87.9462 39.6057 87.9403 39.6057H87.925Z" fill="black"/>
<path d="M78.8337 44.1177C78.0243 44.1177 77.3765 44.773 77.3765 45.5824C77.3765 46.3911 78.0393 47.0474 78.849 47.0474C79.6583 47.0474 80.3137 46.3911 80.3137 45.5824C80.3137 44.773 79.6583 44.1177 78.849 44.1177H78.8337Z" fill="black"/>
</svg>
