<svg width="26" height="26" viewBox="0 0 26 26" fill="none" xmlns="http://www.w3.org/2000/svg">
<path d="M13 16.25C14.7949 16.25 16.25 14.7949 16.25 13C16.25 11.2051 14.7949 9.75 13 9.75C11.2051 9.75 9.75 11.2051 9.75 13C9.75 14.7949 11.2051 16.25 13 16.25Z" stroke="#052356" stroke-width="1.5" stroke-linecap="round" stroke-linejoin="round"/>
<path d="M21.0167 16.2499C20.8725 16.5767 20.8295 16.9391 20.8932 17.2906C20.9569 17.642 21.1244 17.9663 21.3742 18.2216L21.4392 18.2866C21.6406 18.4878 21.8004 18.7268 21.9095 18.9898C22.0185 19.2528 22.0746 19.5348 22.0746 19.8195C22.0746 20.1042 22.0185 20.3862 21.9095 20.6492C21.8004 20.9122 21.6406 21.1512 21.4392 21.3524C21.238 21.5539 20.999 21.7137 20.736 21.8227C20.4729 21.9317 20.191 21.9879 19.9063 21.9879C19.6215 21.9879 19.3396 21.9317 19.0766 21.8227C18.8135 21.7137 18.5746 21.5539 18.3733 21.3524L18.3083 21.2874C18.053 21.0377 17.7287 20.8701 17.3773 20.8064C17.0259 20.7427 16.6634 20.7857 16.3367 20.9299C16.0163 21.0672 15.743 21.2953 15.5505 21.5859C15.358 21.8766 15.2547 22.2171 15.2533 22.5658V22.7499C15.2533 23.3246 15.0251 23.8757 14.6187 24.282C14.2124 24.6883 13.6613 24.9166 13.0867 24.9166C12.512 24.9166 11.9609 24.6883 11.5546 24.282C11.1483 23.8757 10.92 23.3246 10.92 22.7499V22.6524C10.9116 22.2938 10.7956 21.9461 10.5869 21.6543C10.3782 21.3626 10.0866 21.1404 9.75001 21.0166C9.42326 20.8724 9.0608 20.8294 8.70937 20.8931C8.35794 20.9568 8.03366 21.1243 7.77834 21.3741L7.71334 21.4391C7.51212 21.6405 7.27316 21.8003 7.01013 21.9094C6.7471 22.0184 6.46516 22.0745 6.18043 22.0745C5.89569 22.0745 5.61375 22.0184 5.35072 21.9094C5.08769 21.8003 4.84873 21.6405 4.64751 21.4391C4.44606 21.2379 4.28625 20.9989 4.17721 20.7359C4.06818 20.4728 4.01206 20.1909 4.01206 19.9062C4.01206 19.6214 4.06818 19.3395 4.17721 19.0765C4.28625 18.8134 4.44606 18.5745 4.64751 18.3732L4.71251 18.3083C4.96226 18.0529 5.12979 17.7286 5.19351 17.3772C5.25724 17.0258 5.21422 16.6633 5.07001 16.3366C4.93268 16.0162 4.70466 15.7429 4.41401 15.5504C4.12337 15.3579 3.78278 15.2546 3.43418 15.2533H3.25001C2.67537 15.2533 2.12427 15.025 1.71795 14.6186C1.31162 14.2123 1.08334 13.6612 1.08334 13.0866C1.08334 12.5119 1.31162 11.9608 1.71795 11.5545C2.12427 11.1482 2.67537 10.9199 3.25001 10.9199H3.34751C3.70609 10.9115 4.05385 10.7955 4.34558 10.5868C4.63732 10.3781 4.85954 10.0865 4.98334 9.74992C5.12755 9.42317 5.17057 9.06071 5.10685 8.70928C5.04313 8.35785 4.87559 8.03357 4.62584 7.77825L4.56084 7.71325C4.35939 7.51203 4.19958 7.27307 4.09055 7.01004C3.98151 6.74701 3.92539 6.46507 3.92539 6.18033C3.92539 5.8956 3.98151 5.61366 4.09055 5.35063C4.19958 5.0876 4.35939 4.84864 4.56084 4.64742C4.76207 4.44597 5.00103 4.28616 5.26406 4.17712C5.52709 4.06809 5.80903 4.01196 6.09376 4.01196C6.37849 4.01196 6.66043 4.06809 6.92346 4.17712C7.18649 4.28616 7.42545 4.44597 7.62668 4.64742L7.69168 4.71242C7.947 4.96217 8.27128 5.1297 8.62271 5.19342C8.97413 5.25714 9.33659 5.21413 9.66334 5.06992H9.75001C10.0704 4.93259 10.3437 4.70457 10.5362 4.41392C10.7287 4.12327 10.832 3.78269 10.8333 3.43409V3.24992C10.8333 2.67528 11.0616 2.12418 11.4679 1.71785C11.8743 1.31153 12.4254 1.08325 13 1.08325C13.5746 1.08325 14.1257 1.31153 14.5321 1.71785C14.9384 2.12418 15.1667 2.67528 15.1667 3.24992V3.34742C15.1681 3.69602 15.2714 4.03661 15.4638 4.32726C15.6563 4.6179 15.9296 4.84593 16.25 4.98325C16.5768 5.12746 16.9392 5.17048 17.2906 5.10676C17.6421 5.04304 17.9664 4.8755 18.2217 4.62575L18.2867 4.56075C18.4879 4.3593 18.7269 4.19949 18.9899 4.09046C19.2529 3.98142 19.5349 3.9253 19.8196 3.9253C20.1043 3.9253 20.3863 3.98142 20.6493 4.09046C20.9123 4.19949 21.1513 4.3593 21.3525 4.56075C21.554 4.76198 21.7138 5.00094 21.8228 5.26396C21.9318 5.52699 21.988 5.80893 21.988 6.09367C21.988 6.3784 21.9318 6.66034 21.8228 6.92337C21.7138 7.1864 21.554 7.42536 21.3525 7.62658L21.2875 7.69158C21.0378 7.9469 20.8702 8.27119 20.8065 8.62261C20.7428 8.97404 20.7858 9.3365 20.93 9.66325V9.74992C21.0673 10.0703 21.2954 10.3436 21.586 10.5361C21.8767 10.7286 22.2172 10.8319 22.5658 10.8333H22.75C23.3246 10.8333 23.8757 11.0615 24.2821 11.4679C24.6884 11.8742 24.9167 12.4253 24.9167 12.9999C24.9167 13.5746 24.6884 14.1257 24.2821 14.532C23.8757 14.9383 23.3246 15.1666 22.75 15.1666H22.6525C22.3039 15.168 21.9633 15.2713 21.6727 15.4638C21.382 15.6562 21.154 15.9295 21.0167 16.2499V16.2499Z" stroke="#052356" stroke-width="1.5" stroke-linecap="round" stroke-linejoin="round"/>
</svg>
