<svg width="100" height="100" viewBox="0 0 100 100" fill="none" xmlns="http://www.w3.org/2000/svg">
<g clip-path="url(#clip0)">
<path d="M68.6463 98.7074H29.0505C28.7008 98.7074 28.3635 98.5772 28.1043 98.3422C17.1069 88.377 10 73.6174 10 60.7389C10 38.9739 26.9748 22.5618 49.483 22.5618C71.9911 22.5618 88.9659 38.9739 88.9659 60.7389C88.9659 75.5368 78.5311 90.247 69.5924 98.3422C69.3333 98.5772 68.9961 98.7074 68.6463 98.7074ZM29.6005 95.8874H68.0963C76.5161 88.1063 86.1457 74.3972 86.1457 60.7389C86.1457 40.5829 70.3835 25.382 49.483 25.382C28.5824 25.382 12.8202 40.5829 12.8202 60.7389C12.8202 72.7024 19.3913 86.4396 29.6005 95.8874Z" fill="#052356"/>
<path d="M60.7761 24.9307H57.9559V4.23033C57.9559 3.85633 57.8072 3.49767 57.5429 3.23322C57.2783 2.96878 56.9198 2.82022 56.5457 2.82022H42.4446C42.0705 2.82022 41.712 2.96878 41.4474 3.23322C41.1831 3.49767 41.0344 3.85633 41.0344 4.23033V11.2808H38.2142V4.23033C38.2142 3.10837 38.6598 2.03237 39.4533 1.23903C40.2466 0.445693 41.3227 0 42.4446 0H56.5457C57.6677 0 58.7437 0.445693 59.537 1.23903C60.3305 2.03237 60.7761 3.10837 60.7761 4.23033V24.9307Z" fill="#052356"/>
<path d="M38.2142 16.9216H41.0342V24.9311H38.2142V16.9216Z" fill="#052356"/>
<path d="M48.0854 7.05029H50.9057V9.87051H48.0854V7.05029Z" fill="#052356"/>
<path d="M67.167 8.62138L84.0798 0.165039L85.3407 2.68631L68.4276 11.1426L67.167 8.62138Z" fill="#FE5943"/>
<path d="M67.1792 16.8025L68.4398 14.2812L85.3529 22.7377L84.0922 25.2588L67.1792 16.8025Z" fill="#FE5943"/>
<path d="M73.4598 11.2815H90.3809V14.1017H73.4598V11.2815Z" fill="#FE5943"/>
<path d="M65.8326 91.6569H31.8913C31.704 91.6567 31.5187 91.6191 31.346 91.5465C31.1734 91.4739 31.017 91.3676 30.8859 91.2339C22.4859 82.6887 17.057 70.7154 17.057 60.7332C17.0563 58.5715 17.2688 56.4147 17.6916 54.2947C17.7353 54.0756 17.8305 53.8702 17.9693 53.6952C18.1081 53.52 18.2864 53.3804 18.4897 53.2878C24.8972 50.3717 37.5459 46.7463 50.272 55.231C53.5096 57.4341 57.1785 58.9241 61.0354 59.6024L60.5615 62.383C56.3146 61.6423 52.2735 60.0082 48.7054 57.5887C37.5415 50.146 26.3792 52.9678 20.3228 55.5721C20.0267 57.2767 19.8776 59.0032 19.8772 60.7332C19.8772 69.8539 24.8126 80.8243 32.4878 88.8367H65.243C71.7296 82.1865 79.1017 71.0156 79.1017 60.7332C79.1017 60.5287 79.1017 60.3243 79.1017 60.1213C75.0835 61.788 70.7933 62.7028 66.4446 62.8202L66.3909 60C71.035 59.8604 75.5985 58.7493 79.787 56.7384C79.9917 56.6413 80.2167 56.595 80.4433 56.6034C80.6696 56.6117 80.8906 56.6745 81.0876 56.7865C81.2848 56.8984 81.4517 57.056 81.575 57.2463C81.698 57.4365 81.7735 57.6537 81.795 57.8791C81.8837 58.8041 81.9276 59.7645 81.9276 60.7332C81.9276 72.0804 74.1324 83.9352 66.8393 91.2437C66.7074 91.3758 66.5502 91.4804 66.3774 91.5513C66.2046 91.6221 66.0194 91.658 65.8326 91.6569Z" fill="#FE5943"/>
</g>
<defs>
<clipPath id="clip0">
<rect width="80.4348" height="100" fill="white" transform="translate(10)"/>
</clipPath>
</defs>
</svg>
