<svg width="100" height="100" viewBox="0 0 100 100" fill="none" xmlns="http://www.w3.org/2000/svg">
<path d="M36.1025 63.1836H39.3395C39.4795 64.7003 39.8337 66.1389 40.3652 67.4536C38.336 68.4614 36.9539 70.5691 36.9539 72.923C36.9539 73.7322 37.6097 74.3878 38.4187 74.3878C39.2277 74.3878 39.8835 73.7322 39.8835 72.923C39.8835 71.6661 40.6412 70.5443 41.7422 70.0393C43.712 72.9241 46.6822 74.7647 50 74.7647C53.3175 74.7647 56.2879 72.9238 58.2577 70.0391C59.3589 70.5441 60.1166 71.6661 60.1166 72.923C60.1166 73.7322 60.7725 74.3878 61.5814 74.3878C62.3904 74.3878 63.0462 73.7322 63.0462 72.923C63.0462 70.5693 61.6639 68.4614 59.6347 67.4536C60.1664 66.1389 60.5202 64.7001 60.6604 63.1834H63.8975C64.7064 63.1834 65.3622 62.5278 65.3622 61.7186C65.3622 60.9095 64.7064 60.2539 63.8975 60.2539H60.6604C60.5204 58.7405 60.1679 57.3047 59.6383 55.9922C61.6858 54.9953 63.046 52.908 63.046 50.5145C63.046 49.7053 62.3902 49.0497 61.5812 49.0497C60.7722 49.0497 60.1164 49.7053 60.1164 50.5145C60.1164 51.7924 59.3714 52.902 58.26 53.4018C56.2902 50.5147 53.3189 48.6726 50 48.6726C46.6822 48.6726 43.712 50.5134 41.7422 53.3984C40.6412 52.8934 39.8835 51.7714 39.8835 50.5145C39.8835 49.7053 39.2277 49.0497 38.4187 49.0497C37.6097 49.0497 36.9539 49.7053 36.9539 50.5145C36.9539 52.868 38.336 54.9761 40.3652 55.9836C39.8335 57.2986 39.4795 58.7372 39.3393 60.2539H36.1022C35.2933 60.2539 34.6375 60.9095 34.6375 61.7186C34.6375 62.5278 35.2935 63.1836 36.1025 63.1836ZM50.0002 51.6024C54.3012 51.6024 57.8004 56.1405 57.8004 61.7189C57.8004 67.2972 54.3012 71.8353 50.0002 71.8353C45.6991 71.8353 42.2 67.2972 42.2 61.7189C42.2 56.1405 45.6991 51.6024 50.0002 51.6024Z" fill="#FE5943"/>
<path d="M84.0331 7.8125C75.3392 7.8125 68.2508 14.7984 68.0748 23.4512C67.9102 23.4423 67.7448 23.4375 67.5781 23.4375H63.1835V20.996C63.1835 18.0346 60.7742 15.625 57.8125 15.625H55.371V10.7422H61.7187C64.6804 10.7422 67.0898 8.33262 67.0898 5.37108C67.0898 2.40956 64.6804 0 61.7187 0H38.2812C35.3196 0 32.9102 2.40956 32.9102 5.37108C32.9102 8.33262 35.3196 10.7422 38.2812 10.7422H44.629V15.625H42.1875C39.2258 15.625 36.8165 18.0346 36.8165 20.996V23.4375H32.4219C27.3065 23.4375 23.1446 27.5994 23.1446 32.7148V83.3983H20.8496C16.8918 83.3983 13.6719 80.1785 13.6719 76.2206V70.9729C16.4055 70.7252 18.5547 68.4219 18.5547 65.625V46.0937C18.5547 43.64 16.9 41.5669 14.6484 40.9273V15.3736C14.6484 12.4 15.8064 9.60469 17.909 7.50196C18.7391 6.67187 19.1961 5.56835 19.1961 4.39454C19.1961 3.2205 18.7389 2.11719 17.909 1.2873C17.0791 0.457227 15.9754 0 14.8016 0C13.6277 0 12.5242 0.457227 11.6941 1.28711C6.67206 6.30919 3.90625 12.9865 3.90625 20.0889V40.9273C1.65469 41.5669 0 43.64 0 46.0937V65.625C0 68.4219 2.14921 70.7252 4.88281 70.9729V76.2206C4.88281 85.0248 12.0455 92.1875 20.8496 92.1875H23.2612C23.9658 96.6094 27.8048 100 32.4219 100H67.5781C72.1952 100 76.0342 96.6094 76.7387 92.1875H84.0331C92.8373 92.1875 100 85.0248 100 76.2206V23.7794C100 14.9752 92.8373 7.8125 84.0331 7.8125ZM35.8398 5.37108C35.8398 4.02481 36.935 2.92969 38.2812 2.92969H61.7187C63.065 2.92969 64.1602 4.02481 64.1602 5.37108C64.1602 6.71737 63.065 7.8125 61.7187 7.8125H38.2812C36.935 7.8125 35.8398 6.71737 35.8398 5.37108ZM47.5585 10.7422H52.4415V15.625H47.5585V10.7422ZM39.746 20.996C39.746 19.6498 40.8412 18.5547 42.1875 18.5547H57.8125C59.1587 18.5547 60.254 19.6498 60.254 20.996V23.4375H39.746V20.996ZM32.4219 26.3671H67.5781C71.0781 26.3671 73.9258 29.2146 73.9258 32.7148V34.8633H36.7456C35.9367 34.8633 35.2808 35.519 35.2808 36.3281C35.2808 37.1373 35.9367 37.7929 36.7456 37.7929H73.9258V85.6446H26.0742V37.7929H30.8862C31.6954 37.7929 32.3512 37.1373 32.3512 36.3281C32.3512 35.519 31.6954 34.8633 30.8862 34.8633H26.0742V32.7148C26.0742 29.2146 28.9219 26.3671 32.4219 26.3671ZM13.7658 3.35858C14.0426 3.08202 14.4104 2.92969 14.8017 2.92969C15.193 2.92969 15.5607 3.08204 15.8375 3.35879C16.1142 3.63535 16.2664 4.00312 16.2664 4.39454C16.2664 4.78575 16.1141 5.15371 15.8373 5.43048C13.1814 8.08633 11.7187 11.6176 11.7187 15.3736V40.7227H6.83594V20.0889C6.83594 13.7689 9.29706 7.82754 13.7658 3.35858ZM2.92969 65.625V46.0937C2.92969 44.7475 4.02481 43.6523 5.37108 43.6523H13.1836C14.5299 43.6523 15.625 44.7475 15.625 46.0937V65.625C15.625 66.9712 14.5299 68.0665 13.1836 68.0665H5.37108C4.02481 68.0665 2.92969 66.9712 2.92969 65.625ZM7.8125 76.2206V70.996H10.7422V76.2206C10.7422 81.794 15.2764 86.3281 20.8496 86.3281H23.1446V89.2579H20.8496C13.6609 89.2579 7.8125 83.4094 7.8125 76.2206ZM67.5781 97.0704H32.4219C28.9219 97.0704 26.0742 94.2229 26.0742 90.7227V88.5742H73.9258V90.7227C73.9258 94.2229 71.0781 97.0704 67.5781 97.0704ZM97.0704 76.2206C97.0704 83.4094 91.2219 89.2579 84.0331 89.2579H76.8554V86.3281H84.0331C89.6065 86.3281 94.1406 81.794 94.1406 76.2206V64.6483C94.1406 63.8392 93.4848 63.1835 92.6758 63.1835C91.8669 63.1835 91.2108 63.8392 91.2108 64.6483V76.2206C91.2108 80.1785 87.991 83.3983 84.0331 83.3983H76.8554V23.7794C76.8554 19.8215 80.0754 16.6016 84.0331 16.6016C87.991 16.6016 91.2108 19.8215 91.2108 23.7794V58.7892C91.2108 59.5983 91.8669 60.254 92.6758 60.254C93.4848 60.254 94.1406 59.5983 94.1406 58.7892V23.7794C94.1406 18.2061 89.6065 13.6719 84.0331 13.6719C78.46 13.6719 73.9258 18.2061 73.9258 23.7794V25.9581C73.0817 25.1646 72.09 24.5279 70.996 24.0927V23.7794C70.996 16.5906 76.8446 10.7422 84.0331 10.7422C91.2219 10.7422 97.0704 16.5906 97.0704 23.7794V76.2206Z" fill="#052356"/>
</svg>
