<svg width="100" height="100" viewBox="0 0 100 100" fill="none" xmlns="http://www.w3.org/2000/svg">
<g clip-path="url(#clip0)">
<path d="M95.8758 82.567H94.4852C94.4994 82.3708 94.4994 82.1739 94.4852 81.9777V7.74046C94.4852 5.46267 92.6387 3.61617 90.361 3.61617H50.0606C47.7829 3.61617 45.9365 5.46267 45.9365 7.74046V38.3781C42.0994 39.3089 38.7417 41.6256 36.5094 44.8827C33.7721 48.8264 32.926 53.7818 34.1998 58.4104C35.8967 64.915 36.1087 73.5406 32.5973 77.1229C30.5754 78.915 27.7315 79.4493 25.1971 78.5133C22.471 78.0818 20.1434 76.3116 18.9989 73.8C15.2517 65.1506 24.6079 48.795 24.6315 48.7241C25.1971 47.8758 38.2298 27.6314 24.9144 15.7298C24.3723 15.1642 11.528 1.58937 1.60615 2.90915C0.597469 3.03936 -0.114855 3.96261 0.0153545 4.97129C0.145564 5.97998 1.06882 6.69229 2.0775 6.56209C4.46194 6.41892 6.83871 6.94977 8.9356 8.09398L6.29606 11.2756C4.86552 13.0481 5.14302 15.6447 6.91558 17.0752C6.94446 17.0985 6.97362 17.1215 7.00308 17.1439L15.8644 24.2141C16.593 24.7979 17.4997 25.1141 18.4333 25.1095H18.7868C19.8732 24.987 20.866 24.4356 21.5442 23.5777L24.1129 20.349C32.0787 30.5302 21.7562 46.7445 21.4971 47.0037C21.0729 47.7343 11.1745 65.0564 15.6052 75.2845C17.2431 78.8362 20.5364 81.3437 24.3958 81.9777C25.5846 82.2658 26.8023 82.4162 28.0252 82.4256C30.6677 82.5052 33.226 81.4902 35.0954 79.621C39.809 74.6954 39.4319 64.6558 37.5935 57.5383C35.6383 50.9866 39.3465 44.0866 45.8894 42.1016V81.9777C45.8752 82.1739 45.8752 82.3708 45.8894 82.567H44.7108C42.4337 82.5147 40.5454 84.3185 40.4935 86.5958C40.4927 86.6277 40.4923 86.6593 40.4923 86.6912V92.8895C40.4917 95.1672 42.3377 97.0143 44.6154 97.015C44.6473 97.015 44.6792 97.0145 44.7108 97.0137H95.8758C98.1535 97.0137 100 95.1672 100 92.8895V86.6912C100 84.4137 98.1535 82.567 95.8758 82.567ZM21.4027 18.1573L18.7868 21.386C18.6869 21.5074 18.5426 21.5836 18.3861 21.5981C18.2347 21.6178 18.0815 21.5751 17.9619 21.4803L9.10058 14.41C8.8761 14.1808 8.8761 13.8144 9.10058 13.5852L11.7166 10.3329C11.8164 10.2115 11.9608 10.1352 12.1172 10.1208C12.2686 10.101 12.4218 10.1438 12.5414 10.2386L21.4027 17.3088C21.5262 17.4069 21.6031 17.5522 21.6148 17.7095C21.6133 17.8827 21.5358 18.0465 21.4027 18.1573ZM49.4244 7.74046C49.4244 7.41494 49.6881 7.15127 50.0135 7.15127H90.4081C90.7335 7.15127 90.9973 7.41494 90.9973 7.74046V81.9777C90.9973 82.3033 90.7335 82.567 90.4081 82.567H50.0606C49.7365 82.5929 49.4523 82.351 49.4262 82.0266C49.425 82.0104 49.4242 81.9939 49.4244 81.9777V7.74046ZM96.5592 92.8895C96.5592 93.215 96.2956 93.4787 95.97 93.4787H44.7108C44.3854 93.4787 44.1217 93.215 44.1217 92.8895V86.6912C44.1217 86.3658 44.3854 86.102 44.7108 86.102H95.8758C96.1969 86.05 96.4996 86.2683 96.5515 86.5893C96.5571 86.6229 96.5596 86.657 96.5592 86.6912V92.8895Z" fill="#052356"/>
<path d="M82.419 12.7605H58.0032C55.7252 12.7605 53.8788 14.607 53.8788 16.8848V41.3242C53.8788 43.6019 55.7252 45.4485 58.0032 45.4485H82.419C84.6967 45.4485 86.5432 43.6019 86.5432 41.3242V16.8848C86.5432 14.6073 84.6967 12.7605 82.419 12.7605ZM83.0082 41.3477C82.9954 41.6638 82.7352 41.9138 82.419 41.9133H58.0032C57.6775 41.9133 57.414 41.6498 57.414 41.3242V16.8848C57.414 16.5593 57.6775 16.2956 58.0032 16.2956H82.419C82.7444 16.2956 83.0082 16.5593 83.0082 16.8848V41.3477Z" fill="#FE5943"/>
<path d="M79.6609 52.1169H60.8069C59.8307 52.1169 59.0394 52.9082 59.0394 53.8844C59.0394 54.8607 59.8307 55.6519 60.8069 55.6519H79.6609C80.6371 55.6519 81.4284 54.8607 81.4284 53.8844C81.4284 52.9082 80.6371 52.1169 79.6609 52.1169Z" fill="#FE5943"/>
</g>
<defs>
<clipPath id="clip0">
<rect width="100" height="95.8333" fill="white" transform="translate(0 2)"/>
</clipPath>
</defs>
</svg>
