<svg width="443" height="120" viewBox="0 0 443 120" fill="none" xmlns="http://www.w3.org/2000/svg">
<g filter="url(#filter0_d)">
<rect x="30" y="21" width="175" height="60" rx="15" fill="white"/>
</g>
<path d="M58.882 52.526C58.882 53.174 58.72 53.774 58.396 54.326C58.072 54.866 57.592 55.304 56.956 55.64C56.32 55.964 55.546 56.126 54.634 56.126C53.734 56.126 52.93 55.976 52.222 55.676C51.514 55.364 50.944 54.92 50.512 54.344C50.092 53.768 49.852 53.096 49.792 52.328H52.492C52.552 52.844 52.756 53.276 53.104 53.624C53.464 53.96 53.938 54.128 54.526 54.128C55.054 54.128 55.456 53.99 55.732 53.714C56.02 53.426 56.164 53.06 56.164 52.616C56.164 52.22 56.05 51.896 55.822 51.644C55.594 51.38 55.306 51.17 54.958 51.014C54.61 50.858 54.13 50.678 53.518 50.474C52.726 50.21 52.078 49.952 51.574 49.7C51.07 49.436 50.638 49.058 50.278 48.566C49.93 48.074 49.756 47.432 49.756 46.64C49.756 45.548 50.146 44.69 50.926 44.066C51.718 43.43 52.762 43.112 54.058 43.112C55.402 43.112 56.47 43.436 57.262 44.084C58.066 44.732 58.522 45.596 58.63 46.676H55.894C55.822 46.22 55.63 45.848 55.318 45.56C55.006 45.26 54.58 45.11 54.04 45.11C53.572 45.11 53.194 45.236 52.906 45.488C52.618 45.728 52.474 46.082 52.474 46.55C52.474 46.922 52.582 47.234 52.798 47.486C53.026 47.726 53.308 47.924 53.644 48.08C53.992 48.236 54.46 48.41 55.048 48.602C55.864 48.89 56.524 49.16 57.028 49.412C57.544 49.664 57.982 50.042 58.342 50.546C58.702 51.05 58.882 51.71 58.882 52.526ZM66.7096 45.902C67.5496 45.902 68.3056 46.106 68.9776 46.514C69.6496 46.922 70.1716 47.516 70.5436 48.296C70.9276 49.064 71.1196 49.97 71.1196 51.014C71.1196 52.058 70.9276 52.97 70.5436 53.75C70.1716 54.518 69.6496 55.106 68.9776 55.514C68.3056 55.922 67.5496 56.126 66.7096 56.126C65.8696 56.126 65.1496 55.928 64.5496 55.532C63.9616 55.124 63.5416 54.584 63.2896 53.912V60.752H60.7516V46.028H63.2896V48.098C63.5416 47.426 63.9616 46.892 64.5496 46.496C65.1496 46.1 65.8696 45.902 66.7096 45.902ZM65.9176 48.116C65.1496 48.116 64.5136 48.38 64.0096 48.908C63.5176 49.424 63.2716 50.126 63.2716 51.014C63.2716 51.89 63.5176 52.592 64.0096 53.12C64.5136 53.636 65.1496 53.894 65.9176 53.894C66.7096 53.894 67.3456 53.642 67.8256 53.138C68.3056 52.622 68.5456 51.914 68.5456 51.014C68.5456 50.114 68.3056 49.406 67.8256 48.89C67.3456 48.374 66.7096 48.116 65.9176 48.116ZM77.5237 45.902C78.4957 45.902 79.3657 46.106 80.1337 46.514C80.9137 46.922 81.5257 47.516 81.9697 48.296C82.4137 49.064 82.6357 49.97 82.6357 51.014C82.6357 52.058 82.4137 52.964 81.9697 53.732C81.5257 54.5 80.9137 55.094 80.1337 55.514C79.3657 55.922 78.4957 56.126 77.5237 56.126C76.5517 56.126 75.6757 55.922 74.8957 55.514C74.1277 55.094 73.5217 54.5 73.0777 53.732C72.6337 52.964 72.4117 52.058 72.4117 51.014C72.4117 49.97 72.6337 49.064 73.0777 48.296C73.5217 47.516 74.1277 46.922 74.8957 46.514C75.6757 46.106 76.5517 45.902 77.5237 45.902ZM77.5237 48.098C76.8157 48.098 76.2157 48.35 75.7237 48.854C75.2317 49.346 74.9857 50.066 74.9857 51.014C74.9857 51.962 75.2317 52.688 75.7237 53.192C76.2157 53.684 76.8157 53.93 77.5237 53.93C78.2317 53.93 78.8317 53.684 79.3237 53.192C79.8157 52.688 80.0617 51.962 80.0617 51.014C80.0617 50.066 79.8157 49.346 79.3237 48.854C78.8317 48.35 78.2317 48.098 77.5237 48.098ZM89.7573 53.822V56H88.4253C87.3093 56 86.4513 55.73 85.8513 55.19C85.2633 54.65 84.9693 53.75 84.9693 52.49V48.17H83.5833V46.028H84.9693V43.562H87.5073V46.028H89.7393V48.17H87.5073V52.526C87.5073 53.006 87.6033 53.342 87.7953 53.534C87.9873 53.726 88.3113 53.822 88.7673 53.822H89.7573Z" fill="#052356"/>
<path d="M164 48L170 54L176 48" stroke="#052356" stroke-width="2" stroke-linecap="round" stroke-linejoin="round"/>
<g filter="url(#filter1_d)">
<rect x="238" y="21" width="175" height="60" rx="15" fill="white"/>
</g>
<path d="M267.634 43.436C268.954 43.436 270.112 43.694 271.108 44.21C272.116 44.726 272.89 45.464 273.43 46.424C273.982 47.372 274.258 48.476 274.258 49.736C274.258 50.996 273.982 52.1 273.43 53.048C272.89 53.984 272.116 54.71 271.108 55.226C270.112 55.742 268.954 56 267.634 56H263.242V43.436H267.634ZM267.544 53.858C268.864 53.858 269.884 53.498 270.604 52.778C271.324 52.058 271.684 51.044 271.684 49.736C271.684 48.428 271.324 47.408 270.604 46.676C269.884 45.932 268.864 45.56 267.544 45.56H265.762V53.858H267.544ZM275.496 50.978C275.496 49.97 275.694 49.076 276.09 48.296C276.498 47.516 277.044 46.916 277.728 46.496C278.424 46.076 279.198 45.866 280.05 45.866C280.794 45.866 281.442 46.016 281.994 46.316C282.558 46.616 283.008 46.994 283.344 47.45V46.028H285.882V56H283.344V54.542C283.02 55.01 282.57 55.4 281.994 55.712C281.43 56.012 280.776 56.162 280.032 56.162C279.192 56.162 278.424 55.946 277.728 55.514C277.044 55.082 276.498 54.476 276.09 53.696C275.694 52.904 275.496 51.998 275.496 50.978ZM283.344 51.014C283.344 50.402 283.224 49.88 282.984 49.448C282.744 49.004 282.42 48.668 282.012 48.44C281.604 48.2 281.166 48.08 280.698 48.08C280.23 48.08 279.798 48.194 279.402 48.422C279.006 48.65 278.682 48.986 278.43 49.43C278.19 49.862 278.07 50.378 278.07 50.978C278.07 51.578 278.19 52.106 278.43 52.562C278.682 53.006 279.006 53.348 279.402 53.588C279.81 53.828 280.242 53.948 280.698 53.948C281.166 53.948 281.604 53.834 282.012 53.606C282.42 53.366 282.744 53.03 282.984 52.598C283.224 52.154 283.344 51.626 283.344 51.014ZM291.278 48.098V52.922C291.278 53.258 291.356 53.504 291.512 53.66C291.68 53.804 291.956 53.876 292.34 53.876H293.51V56H291.926C289.802 56 288.74 54.968 288.74 52.904V48.098H287.552V46.028H288.74V43.562H291.278V46.028H293.51V48.098H291.278ZM304.592 50.798C304.592 51.158 304.568 51.482 304.52 51.77H297.23C297.29 52.49 297.542 53.054 297.986 53.462C298.43 53.87 298.976 54.074 299.624 54.074C300.56 54.074 301.226 53.672 301.622 52.868H304.34C304.052 53.828 303.5 54.62 302.684 55.244C301.868 55.856 300.866 56.162 299.678 56.162C298.718 56.162 297.854 55.952 297.086 55.532C296.33 55.1 295.736 54.494 295.304 53.714C294.884 52.934 294.674 52.034 294.674 51.014C294.674 49.982 294.884 49.076 295.304 48.296C295.724 47.516 296.312 46.916 297.068 46.496C297.824 46.076 298.694 45.866 299.678 45.866C300.626 45.866 301.472 46.07 302.216 46.478C302.972 46.886 303.554 47.468 303.962 48.224C304.382 48.968 304.592 49.826 304.592 50.798ZM301.982 50.078C301.97 49.43 301.736 48.914 301.28 48.53C300.824 48.134 300.266 47.936 299.606 47.936C298.982 47.936 298.454 48.128 298.022 48.512C297.602 48.884 297.344 49.406 297.248 50.078H301.982Z" fill="#052356"/>
<path d="M372 48L378 54L384 48" stroke="#052356" stroke-width="2" stroke-linecap="round" stroke-linejoin="round"/>
<defs>
<filter id="filter0_d" x="0" y="0" width="235" height="120" filterUnits="userSpaceOnUse" color-interpolation-filters="sRGB">
<feFlood flood-opacity="0" result="BackgroundImageFix"/>
<feColorMatrix in="SourceAlpha" type="matrix" values="0 0 0 0 0 0 0 0 0 0 0 0 0 0 0 0 0 0 127 0"/>
<feOffset dy="9"/>
<feGaussianBlur stdDeviation="15"/>
<feColorMatrix type="matrix" values="0 0 0 0 0.878056 0 0 0 0 0.914753 0 0 0 0 0.966667 0 0 0 1 0"/>
<feBlend mode="normal" in2="BackgroundImageFix" result="effect1_dropShadow"/>
<feBlend mode="normal" in="SourceGraphic" in2="effect1_dropShadow" result="shape"/>
</filter>
<filter id="filter1_d" x="208" y="0" width="235" height="120" filterUnits="userSpaceOnUse" color-interpolation-filters="sRGB">
<feFlood flood-opacity="0" result="BackgroundImageFix"/>
<feColorMatrix in="SourceAlpha" type="matrix" values="0 0 0 0 0 0 0 0 0 0 0 0 0 0 0 0 0 0 127 0"/>
<feOffset dy="9"/>
<feGaussianBlur stdDeviation="15"/>
<feColorMatrix type="matrix" values="0 0 0 0 0.878056 0 0 0 0 0.914753 0 0 0 0 0.966667 0 0 0 1 0"/>
<feBlend mode="normal" in2="BackgroundImageFix" result="effect1_dropShadow"/>
<feBlend mode="normal" in="SourceGraphic" in2="effect1_dropShadow" result="shape"/>
</filter>
</defs>
</svg>
