<svg width="100" height="100" viewBox="0 0 100 100" fill="none" xmlns="http://www.w3.org/2000/svg">
<g clip-path="url(#clip0)">
<path d="M37.9994 100H61.3327C65.0093 100 67.9993 97.01 67.9993 93.3333V80.0833L76.3227 1.84167C76.3727 1.37333 76.2211 0.903333 75.9044 0.551667C75.5893 0.2 75.1378 0 74.666 0H24.666C24.1944 0 23.7427 0.2 23.4277 0.551667C23.111 0.903333 22.9594 1.37333 23.0094 1.84167L31.3327 80.0833V93.3333C31.3327 97.01 34.3227 100 37.9994 100ZM57.7627 90C57.0178 87.1318 54.4311 85 51.3327 85H47.9993C44.901 85 42.3144 87.1318 41.5694 90H34.666V81.6667H64.666V90H57.7627ZM54.2027 90H45.131C45.7093 89.0082 46.7727 88.3333 48.0011 88.3333H51.3344C52.5611 88.3333 53.6244 89.0082 54.2027 90ZM64.8344 78.3333H34.4977L27.2294 10H72.1027L64.8344 78.3333ZM61.3327 96.6667H37.9994C36.161 96.6667 34.666 95.1718 34.666 93.3333H64.666C64.666 95.1718 63.1711 96.6667 61.3327 96.6667ZM72.8127 3.33333L72.4578 6.66667H26.8744L26.5194 3.33333H72.8127Z" fill="#052356"/>
<path d="M49.6652 25C44.1503 25 39.6653 29.4849 39.6653 35C39.6653 40.5151 44.1503 45 49.6652 45C55.1803 45 59.6652 40.5151 59.6652 35C59.6652 29.4849 55.1803 25 49.6652 25ZM49.6652 41.6667C45.9885 41.6667 42.9986 38.6767 42.9986 35C42.9986 31.3233 45.9885 28.3333 49.6652 28.3333C53.3419 28.3333 56.3319 31.3233 56.3319 35C56.3319 38.6767 53.3419 41.6667 49.6652 41.6667Z" fill="#FE5943"/>
<path d="M47.9984 16.6667H51.3317V21.6667H47.9984V16.6667Z" fill="#FE5943"/>
<path d="M47.9984 48.3333H51.3317V53.3333H47.9984V48.3333Z" fill="#FE5943"/>
<path d="M31.3319 33.3333H36.3319V36.6666H31.3319V33.3333Z" fill="#FE5943"/>
<path d="M62.9984 33.3333H67.9984V36.6666H62.9984V33.3333Z" fill="#FE5943"/>
<path d="M35.5149 23.2165L37.8719 20.8594L41.4074 24.3949L39.0504 26.752L35.5149 23.2165Z" fill="#FE5943"/>
<path d="M57.9023 45.6101L60.2592 43.2532L63.7948 46.7887L61.4377 49.1456L57.9023 45.6101Z" fill="#FE5943"/>
<path d="M35.5129 46.7858L39.0485 43.2502L41.4055 45.6074L37.87 49.1427L35.5129 46.7858Z" fill="#FE5943"/>
<path d="M57.9059 24.3976L61.4414 20.8621L63.7983 23.2191L60.2628 26.7547L57.9059 24.3976Z" fill="#FE5943"/>
</g>
<defs>
<clipPath id="clip0">
<rect width="53.3333" height="100" fill="white" transform="translate(23)"/>
</clipPath>
</defs>
</svg>
